<svg id="svg" version="1.1" xmlns="http://www.w3.org/2000/svg" xmlns:xlink="http://www.w3.org/1999/xlink" width="400" height="364.1379310344828" viewBox="0, 0, 400,364.1379310344828"><g id="svgg"><path id="path0" d="M108.925 96.442 C 108.925 100.804,108.593 100.542,114.146 100.559 C 117.404 100.569,118.505 100.712,119.672 101.275 C 120.474 101.662,121.320 101.984,121.554 101.991 C 121.788 101.998,122.503 102.665,123.144 103.474 C 124.370 105.023,124.487 105.528,125.327 112.942 C 125.954 118.478,125.574 200.327,124.902 204.372 C 124.188 208.670,122.371 210.961,119.266 211.477 C 118.488 211.607,117.440 211.868,116.937 212.057 C 116.435 212.246,114.468 212.521,112.566 212.667 L 109.107 212.933 109.107 216.029 L 109.107 219.126 133.698 219.126 L 158.288 219.126 158.393 215.938 L 158.498 212.750 156.389 212.729 C 154.344 212.708,153.431 212.579,148.816 211.665 C 146.684 211.243,144.262 209.481,144.262 208.352 C 144.262 208.138,144.033 207.733,143.752 207.453 C 142.622 206.322,142.421 160.357,143.541 159.008 C 144.423 157.944,166.380 158.245,169.576 159.364 C 172.098 160.247,174.101 161.926,174.125 163.177 C 174.130 163.462,174.411 164.000,174.749 164.374 C 175.209 164.881,175.461 166.266,175.751 169.867 L 176.138 174.681 181.005 174.783 L 185.871 174.885 185.663 173.326 C 184.700 166.085,184.698 142.004,185.660 135.792 L 185.872 134.426 180.771 134.426 L 175.671 134.426 175.538 138.525 C 175.436 141.677,175.258 142.831,174.770 143.524 C 174.421 144.019,174.135 144.692,174.135 145.019 C 174.135 145.958,172.375 147.613,170.405 148.525 C 168.022 149.629,143.804 149.863,143.391 148.786 C 142.873 147.437,143.150 102.109,143.679 101.670 C 145.183 100.421,174.498 101.227,176.581 102.575 C 177.025 102.862,177.640 103.097,177.947 103.097 C 178.255 103.097,178.834 103.424,179.235 103.825 C 179.636 104.226,180.091 104.554,180.247 104.554 C 180.746 104.554,182.514 106.793,182.514 107.425 C 182.514 107.760,182.842 108.316,183.242 108.659 C 183.643 109.002,183.971 109.558,183.971 109.895 C 183.971 110.232,184.197 110.766,184.473 111.082 C 184.750 111.399,185.151 112.887,185.364 114.390 C 185.578 115.893,185.958 117.983,186.209 119.035 L 186.665 120.947 191.203 120.947 L 195.741 120.947 195.534 107.452 C 195.373 96.978,195.217 93.825,194.840 93.370 C 194.404 92.845,193.434 92.818,185.428 93.107 C 173.798 93.526,127.444 93.526,117.031 93.107 L 108.925 92.780 108.925 96.442 M203.279 96.440 L 203.279 100.069 208.419 100.303 C 215.754 100.636,217.474 101.771,218.624 107.033 C 219.574 111.383,219.487 200.138,218.528 204.554 C 217.595 208.847,215.511 211.101,212.080 211.527 C 211.146 211.643,209.680 211.966,208.822 212.244 C 207.963 212.523,206.365 212.750,205.270 212.750 L 203.279 212.750 203.218 215.301 C 203.185 216.703,203.144 218.136,203.127 218.484 C 203.102 219.012,241.823 219.383,252.201 218.955 C 252.359 218.949,252.441 217.591,252.383 215.938 L 252.277 212.933 249.545 212.663 C 248.042 212.514,246.403 212.239,245.902 212.052 C 245.401 211.864,244.175 211.601,243.178 211.467 C 240.983 211.173,239.049 209.758,237.831 207.557 L 236.976 206.011 236.865 186.841 C 236.764 169.525,236.811 167.613,237.346 167.077 C 237.862 166.562,239.106 166.485,246.862 166.485 C 252.012 166.485,256.069 166.333,256.455 166.126 C 256.823 165.929,258.454 165.619,260.080 165.438 C 261.705 165.256,263.238 164.940,263.485 164.735 C 263.732 164.531,264.590 164.255,265.392 164.122 C 266.626 163.917,268.981 162.853,274.598 159.962 C 275.145 159.681,275.674 159.328,275.774 159.178 C 275.874 159.028,276.947 158.110,278.158 157.139 C 281.002 154.858,284.768 150.466,286.157 147.811 C 286.758 146.662,287.359 145.721,287.494 145.721 C 287.628 145.720,287.854 145.187,287.996 144.536 C 288.137 143.884,288.478 143.028,288.753 142.633 C 289.028 142.238,289.257 141.500,289.261 140.994 C 289.266 140.487,289.593 139.358,289.990 138.485 C 291.073 136.098,291.073 122.919,289.990 120.532 C 289.593 119.658,289.266 118.595,289.261 118.168 C 289.257 117.742,289.007 117.189,288.707 116.940 C 288.406 116.690,288.160 116.271,288.160 116.008 C 288.160 115.372,287.585 114.090,286.697 112.750 C 286.299 112.149,285.739 111.166,285.453 110.565 C 284.841 109.279,278.865 102.917,277.575 102.178 C 277.085 101.898,276.277 101.457,275.779 101.198 C 275.281 100.940,274.584 100.442,274.231 100.091 C 273.877 99.740,273.363 99.454,273.087 99.454 C 272.810 99.454,272.381 99.208,272.131 98.907 C 271.882 98.607,271.329 98.360,270.903 98.358 C 270.476 98.357,269.636 98.030,269.035 97.632 C 268.434 97.234,267.593 96.907,267.167 96.906 C 266.740 96.905,266.196 96.668,265.957 96.380 C 265.718 96.092,264.592 95.747,263.454 95.613 C 262.315 95.479,261.048 95.158,260.638 94.901 C 260.227 94.643,258.260 94.318,256.266 94.177 C 254.272 94.037,251.434 93.681,249.959 93.386 C 247.713 92.937,246.382 92.917,241.763 93.266 C 235.740 93.721,205.999 93.586,204.281 93.097 L 203.279 92.811 203.279 96.440 M248.816 101.610 C 250.719 101.854,252.605 102.264,253.005 102.520 C 253.406 102.777,254.332 103.098,255.064 103.233 C 255.795 103.369,256.594 103.722,256.839 104.017 C 257.084 104.312,257.570 104.554,257.919 104.554 C 258.268 104.554,258.971 104.882,259.480 105.282 C 259.990 105.683,260.503 106.011,260.622 106.011 C 261.428 106.011,267.727 112.321,267.955 113.356 C 268.072 113.891,268.383 114.411,268.646 114.512 C 268.908 114.613,269.234 115.138,269.370 115.679 C 269.506 116.221,269.855 116.901,270.145 117.192 C 270.436 117.483,270.674 118.128,270.674 118.625 C 270.674 119.123,271.025 120.300,271.454 121.240 C 273.459 125.636,272.437 140.463,269.778 145.563 C 269.472 146.150,269.220 146.799,269.219 147.005 C 269.218 147.211,268.889 147.660,268.488 148.003 C 268.087 148.346,267.760 148.849,267.760 149.121 C 267.760 149.898,262.568 154.827,261.749 154.827 C 261.511 154.827,261.018 155.155,260.656 155.556 C 260.293 155.956,259.672 156.284,259.276 156.284 C 258.880 156.284,258.045 156.591,257.420 156.966 C 256.421 157.566,251.516 158.180,247.541 158.203 C 244.433 158.221,237.291 157.558,237.073 157.231 C 236.567 156.474,236.740 102.446,237.250 102.116 C 239.057 100.946,242.470 100.797,248.816 101.610 " stroke="none" fill="#fafb54" fill-rule="evenodd"></path><path id="path1" d="M108.075 92.775 C 107.942 92.908,107.832 94.624,107.832 96.587 C 107.832 100.925,107.817 100.911,112.688 100.911 C 118.592 100.911,122.171 102.430,123.754 105.608 C 124.461 107.029,124.990 184.332,124.399 199.913 C 124.091 208.040,123.646 209.059,119.602 210.896 C 119.163 211.096,116.486 211.374,113.652 211.514 C 108.648 211.762,108.491 211.794,108.167 212.648 C 107.749 213.746,107.737 218.593,108.150 219.245 C 108.457 219.730,158.478 219.935,159.255 219.455 C 159.424 219.350,159.563 217.811,159.563 216.034 C 159.563 211.959,159.324 211.666,155.985 211.635 C 148.137 211.561,146.130 210.841,144.451 207.501 L 143.519 205.647 143.617 182.696 L 143.716 159.745 154.504 159.424 C 172.383 158.892,175.251 160.527,175.233 171.242 C 175.225 175.718,175.114 175.636,181.031 175.512 L 185.918 175.410 185.946 154.740 C 185.969 137.843,185.886 134.036,185.489 133.884 C 184.735 133.594,176.187 133.676,175.746 133.976 C 175.531 134.124,175.186 135.883,174.980 137.887 C 173.906 148.350,173.398 148.634,155.780 148.634 L 143.912 148.634 143.713 147.814 C 143.604 147.363,143.560 136.913,143.615 124.590 L 143.716 102.186 156.935 102.090 C 175.753 101.954,180.499 103.007,182.000 107.650 C 182.130 108.051,182.458 108.633,182.729 108.943 C 183.555 109.888,184.352 112.547,185.068 116.747 C 185.547 119.561,185.937 120.881,186.387 121.209 C 187.272 121.856,195.385 121.861,195.922 121.215 C 196.350 120.699,195.926 93.673,195.478 92.948 C 195.195 92.490,108.532 92.318,108.075 92.775 M203.078 92.995 C 202.973 93.270,202.934 95.122,202.991 97.112 L 203.097 100.729 208.258 100.911 C 216.177 101.190,217.630 102.441,218.208 109.472 C 218.697 115.421,218.688 195.550,218.197 201.275 C 217.511 209.280,215.990 210.808,208.056 211.461 C 205.529 211.669,203.256 211.972,203.005 212.134 C 202.423 212.512,202.366 219.151,202.942 219.507 C 203.417 219.800,251.903 219.723,252.672 219.428 C 253.454 219.128,253.261 212.413,252.459 212.001 C 252.158 211.847,249.781 211.568,247.177 211.380 C 241.018 210.938,239.765 210.227,238.041 206.193 C 237.210 204.248,236.721 168.725,237.513 167.771 C 237.809 167.415,240.263 167.251,247.459 167.105 C 257.339 166.906,259.547 166.608,266.485 164.540 C 271.600 163.015,278.456 158.485,282.320 154.077 C 283.415 152.829,284.504 151.614,284.741 151.377 C 284.977 151.141,285.651 150.058,286.238 148.971 C 286.825 147.884,287.643 146.448,288.056 145.781 C 288.470 145.113,289.083 143.638,289.419 142.502 C 289.756 141.366,290.205 140.027,290.418 139.526 C 292.953 133.550,291.444 119.899,287.483 112.986 C 286.753 111.713,285.930 110.252,285.653 109.740 C 284.038 106.751,275.747 99.653,272.131 98.164 C 271.831 98.040,270.765 97.607,269.763 97.202 C 268.761 96.796,267.450 96.245,266.849 95.978 C 265.526 95.389,261.098 94.268,256.648 93.396 C 252.185 92.521,203.400 92.155,203.078 92.995 M150.820 93.431 C 164.945 93.430,180.519 93.284,185.428 93.107 C 193.434 92.818,194.404 92.845,194.840 93.370 C 195.217 93.825,195.373 96.978,195.534 107.452 L 195.741 120.947 191.203 120.947 L 186.665 120.947 186.209 119.035 C 185.958 117.983,185.578 115.893,185.364 114.390 C 185.151 112.887,184.750 111.399,184.473 111.082 C 184.197 110.766,183.971 110.232,183.971 109.895 C 183.971 109.558,183.643 109.002,183.242 108.659 C 182.842 108.316,182.514 107.760,182.514 107.425 C 182.514 106.793,180.746 104.554,180.247 104.554 C 180.091 104.554,179.636 104.226,179.235 103.825 C 178.834 103.424,178.255 103.097,177.947 103.097 C 177.640 103.097,177.025 102.862,176.581 102.575 C 174.498 101.227,145.183 100.421,143.679 101.670 C 143.150 102.109,142.873 147.437,143.391 148.786 C 143.804 149.863,168.022 149.629,170.405 148.525 C 172.375 147.613,174.135 145.958,174.135 145.019 C 174.135 144.692,174.421 144.019,174.770 143.524 C 175.258 142.831,175.436 141.677,175.538 138.525 L 175.671 134.426 180.771 134.426 L 185.872 134.426 185.660 135.792 C 184.698 142.004,184.700 166.085,185.663 173.326 L 185.871 174.885 181.005 174.783 L 176.138 174.681 175.751 169.867 C 175.461 166.266,175.209 164.881,174.749 164.374 C 174.411 164.000,174.130 163.462,174.125 163.177 C 174.101 161.926,172.098 160.247,169.576 159.364 C 166.380 158.245,144.423 157.944,143.541 159.008 C 142.421 160.357,142.622 206.322,143.752 207.453 C 144.033 207.733,144.262 208.138,144.262 208.352 C 144.262 209.481,146.684 211.243,148.816 211.665 C 153.431 212.579,154.344 212.708,156.389 212.729 L 158.498 212.750 158.393 215.938 L 158.288 219.126 133.698 219.126 L 109.107 219.126 109.107 216.029 L 109.107 212.933 112.566 212.667 C 114.468 212.521,116.435 212.246,116.937 212.057 C 117.440 211.868,118.488 211.607,119.266 211.477 C 122.371 210.961,124.188 208.670,124.902 204.372 C 125.574 200.327,125.954 118.478,125.327 112.942 C 124.487 105.528,124.370 105.023,123.144 103.474 C 122.503 102.665,121.788 101.998,121.554 101.991 C 121.320 101.984,120.474 101.662,119.672 101.275 C 118.505 100.712,117.404 100.569,114.146 100.559 C 108.593 100.542,108.925 100.804,108.925 96.442 L 108.925 92.780 117.031 93.107 C 121.489 93.286,136.694 93.432,150.820 93.431 M220.765 93.532 C 230.412 93.626,238.326 93.525,241.763 93.266 C 246.382 92.917,247.713 92.937,249.959 93.386 C 251.434 93.681,254.272 94.037,256.266 94.177 C 258.260 94.318,260.227 94.643,260.638 94.901 C 261.048 95.158,262.315 95.479,263.454 95.613 C 264.592 95.747,265.718 96.092,265.957 96.380 C 266.196 96.668,266.740 96.905,267.167 96.906 C 267.593 96.907,268.434 97.234,269.035 97.632 C 269.636 98.030,270.476 98.357,270.903 98.358 C 271.329 98.360,271.882 98.607,272.131 98.907 C 272.381 99.208,272.810 99.454,273.087 99.454 C 273.363 99.454,273.877 99.740,274.231 100.091 C 274.584 100.442,275.281 100.940,275.779 101.198 C 276.277 101.457,277.085 101.898,277.575 102.178 C 278.865 102.917,284.841 109.279,285.453 110.565 C 285.739 111.166,286.299 112.149,286.697 112.750 C 287.585 114.090,288.160 115.372,288.160 116.008 C 288.160 116.271,288.406 116.690,288.707 116.940 C 289.007 117.189,289.257 117.742,289.261 118.168 C 289.266 118.595,289.593 119.658,289.990 120.532 C 291.073 122.919,291.073 136.098,289.990 138.485 C 289.593 139.358,289.266 140.487,289.261 140.994 C 289.257 141.500,289.028 142.238,288.753 142.633 C 288.478 143.028,288.137 143.884,287.996 144.536 C 287.854 145.187,287.628 145.720,287.494 145.721 C 287.359 145.721,286.758 146.662,286.157 147.811 C 284.768 150.466,281.002 154.858,278.158 157.139 C 276.947 158.110,275.874 159.028,275.774 159.178 C 275.674 159.328,275.145 159.681,274.598 159.962 C 268.981 162.853,266.626 163.917,265.392 164.122 C 264.590 164.255,263.732 164.531,263.485 164.735 C 263.238 164.940,261.705 165.256,260.080 165.438 C 258.454 165.619,256.823 165.929,256.455 166.126 C 256.069 166.333,252.012 166.485,246.862 166.485 C 239.106 166.485,237.862 166.562,237.346 167.077 C 236.811 167.613,236.764 169.525,236.865 186.841 L 236.976 206.011 237.831 207.557 C 239.049 209.758,240.983 211.173,243.178 211.467 C 244.175 211.601,245.401 211.864,245.902 212.052 C 246.403 212.239,248.042 212.514,249.545 212.663 L 252.277 212.933 252.383 215.938 C 252.441 217.591,252.359 218.949,252.201 218.955 C 241.823 219.383,203.102 219.012,203.127 218.484 C 203.144 218.136,203.185 216.703,203.218 215.301 L 203.279 212.750 205.270 212.750 C 206.365 212.750,207.963 212.523,208.822 212.244 C 209.680 211.966,211.146 211.643,212.080 211.527 C 215.511 211.101,217.595 208.847,218.528 204.554 C 219.487 200.138,219.574 111.383,218.624 107.033 C 217.474 101.771,215.754 100.636,208.419 100.303 L 203.279 100.069 203.279 96.440 L 203.279 92.811 204.281 93.097 C 204.832 93.254,212.250 93.449,220.765 93.532 M239.162 101.400 C 238.361 101.632,237.500 101.954,237.250 102.116 C 236.740 102.446,236.567 156.474,237.073 157.231 C 237.291 157.558,244.433 158.221,247.541 158.203 C 251.516 158.180,256.421 157.566,257.420 156.966 C 258.045 156.591,258.880 156.284,259.276 156.284 C 259.672 156.284,260.293 155.956,260.656 155.556 C 261.018 155.155,261.511 154.827,261.749 154.827 C 262.568 154.827,267.760 149.898,267.760 149.121 C 267.760 148.849,268.087 148.346,268.488 148.003 C 268.889 147.660,269.218 147.211,269.219 147.005 C 269.220 146.799,269.472 146.150,269.778 145.563 C 272.437 140.463,273.459 125.636,271.454 121.240 C 271.025 120.300,270.674 119.123,270.674 118.625 C 270.674 118.128,270.436 117.483,270.145 117.192 C 269.855 116.901,269.506 116.221,269.370 115.679 C 269.234 115.138,268.908 114.613,268.646 114.512 C 268.383 114.411,268.072 113.891,267.955 113.356 C 267.727 112.321,261.428 106.011,260.622 106.011 C 260.503 106.011,259.990 105.683,259.480 105.282 C 258.971 104.882,258.268 104.554,257.919 104.554 C 257.570 104.554,257.084 104.312,256.839 104.017 C 256.594 103.722,255.795 103.369,255.064 103.233 C 254.332 103.098,253.406 102.777,253.005 102.520 C 251.421 101.506,241.556 100.708,239.162 101.400 M250.091 102.348 C 257.073 103.846,265.248 109.268,267.819 114.105 C 269.286 116.864,270.057 118.695,270.549 120.583 C 270.836 121.685,271.223 123.160,271.410 123.862 C 272.090 126.414,271.839 136.924,271.023 140.095 C 268.861 148.496,263.773 154.299,256.535 156.620 C 253.477 157.600,238.754 157.884,237.669 156.983 C 236.970 156.403,236.899 103.138,237.596 102.441 C 238.112 101.924,247.781 101.852,250.091 102.348 " stroke="none" fill="#b5ec54" fill-rule="evenodd"></path><path id="path2" d="M107.104 35.883 C 107.104 36.389,106.219 36.622,104.960 36.446 C 104.016 36.314,102.732 36.806,102.732 37.300 C 102.732 37.616,102.121 37.861,101.024 37.985 C 100.067 38.093,99.128 38.434,98.889 38.761 C 98.654 39.082,98.194 39.344,97.865 39.344 C 97.511 39.344,97.268 39.640,97.268 40.073 C 97.268 40.666,97.025 40.801,95.959 40.801 C 94.956 40.801,94.605 40.972,94.459 41.530 C 94.354 41.931,94.042 42.259,93.764 42.259 C 93.487 42.259,93.260 42.546,93.260 42.896 C 93.259 43.360,92.945 43.545,92.107 43.576 C 91.473 43.599,90.777 43.855,90.559 44.145 C 90.342 44.435,89.877 44.779,89.526 44.911 C 89.176 45.043,88.889 45.401,88.889 45.708 C 88.889 46.015,88.654 46.266,88.367 46.266 C 88.080 46.266,87.741 46.594,87.614 46.995 C 87.487 47.395,87.148 47.723,86.861 47.723 C 86.574 47.723,86.339 48.032,86.339 48.409 C 86.339 48.789,86.013 49.180,85.610 49.286 C 85.080 49.425,84.882 49.783,84.882 50.603 C 84.882 51.488,84.725 51.730,84.153 51.730 C 83.682 51.730,83.424 51.973,83.424 52.417 C 83.424 52.796,83.099 53.188,82.696 53.293 C 82.172 53.430,81.967 53.790,81.967 54.572 C 81.967 55.203,81.738 55.748,81.421 55.869 C 81.120 55.985,80.874 56.393,80.874 56.777 C 80.874 57.168,80.554 57.558,80.146 57.665 C 79.537 57.824,79.417 58.162,79.417 59.711 C 79.417 61.324,79.322 61.566,78.689 61.566 C 78.048 61.566,77.960 61.809,77.960 63.570 C 77.960 65.040,77.825 65.574,77.452 65.574 C 76.513 65.574,76.503 66.537,76.503 158.352 C 76.503 249.671,76.505 249.978,77.231 250.168 C 77.856 250.331,77.960 250.665,77.960 252.502 C 77.960 254.402,78.042 254.645,78.689 254.645 C 79.309 254.645,79.417 254.888,79.417 256.281 C 79.417 257.523,79.593 258.027,80.146 258.372 C 80.546 258.623,80.874 259.116,80.874 259.468 C 80.874 259.821,81.120 260.109,81.421 260.109 C 81.805 260.109,81.967 260.498,81.967 261.418 C 81.967 262.421,82.138 262.772,82.696 262.918 C 83.097 263.023,83.424 263.335,83.424 263.613 C 83.424 263.890,83.752 264.117,84.153 264.117 C 84.746 264.117,84.882 264.359,84.882 265.426 C 84.882 266.429,85.052 266.779,85.610 266.925 C 86.011 267.030,86.339 267.303,86.339 267.531 C 86.339 267.760,86.913 268.473,87.614 269.117 C 88.315 269.761,88.889 270.456,88.889 270.663 C 88.889 270.869,89.198 271.038,89.575 271.038 C 89.955 271.038,90.346 271.364,90.452 271.767 C 90.598 272.325,90.949 272.495,91.951 272.495 C 93.018 272.495,93.260 272.631,93.260 273.224 C 93.260 273.625,93.487 273.953,93.764 273.953 C 94.042 273.953,94.354 274.281,94.459 274.681 C 94.605 275.239,94.956 275.410,95.959 275.410 C 96.879 275.410,97.268 275.572,97.268 275.956 C 97.268 276.257,97.556 276.503,97.909 276.503 C 98.261 276.503,98.754 276.831,99.005 277.231 C 99.350 277.784,99.854 277.960,101.096 277.960 C 102.489 277.960,102.732 278.068,102.732 278.689 C 102.732 279.335,102.975 279.417,104.876 279.417 C 106.712 279.417,107.046 279.521,107.209 280.146 C 107.399 280.872,107.706 280.874,200.000 280.874 C 292.294 280.874,292.601 280.872,292.791 280.146 C 292.954 279.521,293.288 279.417,295.124 279.417 C 297.025 279.417,297.268 279.335,297.268 278.689 C 297.268 278.068,297.511 277.960,298.904 277.960 C 300.146 277.960,300.650 277.784,300.995 277.231 C 301.246 276.831,301.739 276.503,302.091 276.503 C 302.444 276.503,302.732 276.257,302.732 275.956 C 302.732 275.572,303.121 275.410,304.041 275.410 C 305.031 275.410,305.396 275.237,305.536 274.702 C 305.643 274.290,306.163 273.897,306.777 273.762 C 307.357 273.635,307.832 273.375,307.832 273.186 C 307.832 272.997,308.242 272.686,308.743 272.495 C 309.244 272.305,309.654 271.899,309.654 271.594 C 309.654 271.281,309.972 271.038,310.383 271.038 C 310.783 271.038,311.111 270.811,311.111 270.534 C 311.111 270.257,311.439 269.945,311.840 269.840 C 312.240 269.735,312.568 269.388,312.568 269.069 C 312.568 268.749,312.814 268.488,313.115 268.488 C 313.418 268.488,313.661 268.164,313.661 267.760 C 313.661 267.350,313.904 267.031,314.217 267.031 C 314.522 267.031,314.928 266.621,315.118 266.120 C 315.309 265.619,315.620 265.209,315.809 265.209 C 315.998 265.209,316.258 264.734,316.385 264.154 C 316.520 263.540,316.913 263.020,317.325 262.913 C 317.860 262.773,318.033 262.408,318.033 261.418 C 318.033 260.488,318.194 260.109,318.588 260.109 C 318.894 260.109,319.293 259.715,319.477 259.234 C 319.660 258.752,319.983 258.251,320.196 258.120 C 320.409 257.988,320.583 257.152,320.583 256.263 C 320.583 254.888,320.692 254.645,321.311 254.645 C 321.958 254.645,322.040 254.402,322.040 252.502 C 322.040 250.665,322.144 250.331,322.769 250.168 C 323.495 249.978,323.497 249.671,323.497 158.352 C 323.497 66.537,323.487 65.574,322.548 65.574 C 322.175 65.574,322.040 65.040,322.040 63.570 C 322.040 61.809,321.952 61.566,321.311 61.566 C 320.679 61.566,320.583 61.324,320.583 59.734 C 320.583 58.440,320.422 57.839,320.036 57.691 C 319.736 57.576,319.490 57.182,319.490 56.816 C 319.490 56.450,319.162 56.047,318.761 55.920 C 318.244 55.756,318.033 55.369,318.033 54.586 C 318.033 53.790,317.830 53.431,317.304 53.293 C 316.901 53.188,316.576 52.796,316.576 52.417 C 316.576 51.973,316.318 51.730,315.847 51.730 C 315.257 51.730,315.118 51.488,315.118 50.455 C 315.118 49.423,314.980 49.180,314.390 49.180 C 313.904 49.180,313.661 48.937,313.661 48.452 C 313.661 48.047,313.418 47.723,313.115 47.723 C 312.814 47.723,312.568 47.462,312.568 47.143 C 312.568 46.823,312.240 46.476,311.840 46.371 C 311.439 46.267,311.111 45.949,311.111 45.666 C 311.111 45.382,310.837 45.045,310.501 44.916 C 310.166 44.788,309.592 44.383,309.226 44.017 C 308.860 43.651,308.151 43.352,307.650 43.352 C 307.084 43.352,306.740 43.145,306.740 42.805 C 306.740 42.505,306.513 42.259,306.236 42.259 C 305.958 42.259,305.646 41.931,305.541 41.530 C 305.395 40.972,305.044 40.801,304.041 40.801 C 302.975 40.801,302.732 40.666,302.732 40.073 C 302.732 39.640,302.489 39.344,302.135 39.344 C 301.806 39.344,301.346 39.082,301.111 38.761 C 300.872 38.434,299.933 38.093,298.976 37.985 C 297.914 37.865,297.268 37.613,297.268 37.318 C 297.268 36.865,296.235 36.342,295.575 36.460 C 294.353 36.679,292.896 36.366,292.896 35.883 C 292.896 35.399,282.332 35.337,200.000 35.337 C 117.668 35.337,107.104 35.399,107.104 35.883 M195.537 92.033 C 196.352 92.251,196.357 92.294,196.388 99.769 C 196.405 103.903,196.562 108.270,196.736 109.472 C 197.279 113.201,197.819 120.357,197.609 121.021 C 197.293 122.015,195.470 122.264,190.059 122.053 C 184.152 121.824,184.349 121.970,184.341 117.804 C 184.337 115.703,184.186 114.719,183.820 114.416 C 183.537 114.181,183.195 113.186,183.060 112.204 C 182.925 111.222,182.583 110.227,182.300 109.992 C 182.017 109.757,181.785 109.319,181.785 109.018 C 181.785 107.614,177.563 104.292,175.441 104.027 C 174.321 103.887,173.172 103.539,172.886 103.252 C 172.453 102.819,169.979 102.732,158.129 102.732 L 143.892 102.732 143.986 125.046 L 144.080 147.359 157.219 147.359 L 170.358 147.359 171.326 146.266 C 171.858 145.665,172.520 144.927,172.798 144.627 C 173.104 144.295,173.396 142.788,173.541 140.801 C 173.671 138.998,173.985 136.621,174.238 135.519 L 174.698 133.515 180.701 133.515 L 186.703 133.515 186.797 154.340 C 186.856 167.346,186.757 175.518,186.533 176.107 L 186.175 177.049 180.928 177.049 C 174.532 177.049,174.804 177.263,174.516 172.013 C 174.398 169.874,174.101 167.766,173.854 167.328 C 173.608 166.890,173.406 166.182,173.406 165.754 C 173.406 164.729,171.647 161.749,171.043 161.749 C 170.783 161.749,170.475 161.503,170.360 161.202 C 170.179 160.730,168.356 160.656,157.024 160.656 L 143.898 160.656 143.910 182.240 C 143.922 202.813,143.956 203.893,144.627 205.282 C 145.014 206.084,145.336 206.962,145.343 207.235 C 145.358 207.862,146.852 209.457,147.432 209.465 C 147.672 209.469,148.000 209.705,148.160 209.991 C 148.388 210.396,149.668 210.536,153.990 210.628 C 157.915 210.712,159.666 210.885,160.001 211.220 C 160.518 211.739,160.691 219.326,160.212 220.492 C 159.828 221.427,107.684 221.488,107.325 220.553 C 107.203 220.236,107.104 218.029,107.104 215.648 C 107.104 210.322,106.794 210.565,113.593 210.565 C 117.663 210.565,118.762 210.456,119.126 210.018 C 119.375 209.718,119.846 209.469,120.172 209.465 C 120.866 209.458,122.404 207.940,122.404 207.263 C 122.404 207.007,122.691 206.480,123.042 206.092 C 123.642 205.429,123.679 202.539,123.679 156.284 C 123.679 110.030,123.642 107.140,123.042 106.476 C 122.691 106.088,122.404 105.415,122.404 104.980 C 122.404 104.545,122.210 104.189,121.972 104.189 C 121.735 104.189,121.202 103.878,120.789 103.497 C 120.236 102.988,119.086 102.703,116.453 102.422 C 114.482 102.212,112.672 101.877,112.431 101.677 C 112.191 101.477,110.935 101.264,109.640 101.203 L 107.286 101.093 107.182 96.908 C 107.092 93.289,107.163 92.661,107.707 92.263 C 108.368 91.780,193.758 91.556,195.537 92.033 M254.385 92.113 C 256.346 92.243,258.067 92.531,258.210 92.753 C 258.353 92.974,259.584 93.243,260.947 93.350 C 262.479 93.470,263.670 93.767,264.072 94.131 C 264.429 94.454,265.297 94.718,266.001 94.718 C 266.820 94.718,267.520 94.981,267.942 95.446 C 268.304 95.847,269.045 96.175,269.588 96.175 C 270.131 96.175,270.993 96.503,271.502 96.903 C 272.011 97.304,272.746 97.632,273.134 97.632 C 273.522 97.632,274.136 97.960,274.499 98.361 C 274.862 98.761,275.361 99.089,275.609 99.089 C 275.858 99.089,276.155 99.335,276.270 99.636 C 276.386 99.936,276.669 100.182,276.899 100.182 C 277.422 100.182,280.479 102.096,280.497 102.434 C 280.504 102.571,281.740 103.908,283.242 105.406 C 284.745 106.904,285.974 108.365,285.974 108.653 C 285.974 108.941,286.302 109.473,286.703 109.836 C 287.104 110.199,287.432 110.691,287.432 110.929 C 287.432 111.167,287.760 111.659,288.160 112.022 C 288.561 112.385,288.889 113.007,288.889 113.404 C 288.889 113.802,289.146 114.315,289.460 114.545 C 289.773 114.774,290.128 115.694,290.247 116.588 C 290.366 117.483,290.675 118.379,290.933 118.579 C 291.191 118.780,291.561 120.009,291.756 121.311 C 291.951 122.614,292.302 124.417,292.536 125.319 C 293.032 127.226,292.844 134.146,292.277 134.862 C 292.070 135.123,291.789 136.481,291.651 137.879 C 291.514 139.277,291.186 140.671,290.922 140.976 C 290.658 141.281,290.350 142.255,290.238 143.140 C 290.123 144.052,289.786 144.889,289.462 145.071 C 289.147 145.247,288.889 145.711,288.889 146.102 C 288.889 146.493,288.561 147.140,288.160 147.541 C 287.760 147.942,287.432 148.493,287.432 148.767 C 287.432 149.040,287.104 149.681,286.703 150.190 C 286.302 150.700,285.974 151.228,285.974 151.364 C 285.974 151.500,285.073 152.506,283.971 153.599 C 282.869 154.692,281.967 155.684,281.967 155.803 C 281.967 156.224,280.100 157.741,279.581 157.741 C 279.290 157.741,279.053 157.992,279.053 158.299 C 279.053 158.606,278.809 158.951,278.512 159.065 C 278.214 159.179,277.371 159.822,276.638 160.493 C 275.905 161.164,274.837 161.816,274.265 161.942 C 273.692 162.068,273.224 162.319,273.224 162.499 C 273.224 162.680,272.773 162.935,272.222 163.066 C 271.671 163.197,270.945 163.542,270.609 163.834 C 270.273 164.126,269.293 164.523,268.432 164.716 C 267.571 164.910,266.757 165.245,266.623 165.462 C 266.490 165.678,265.502 165.940,264.429 166.043 C 263.238 166.157,262.311 166.457,262.052 166.813 C 261.585 167.452,257.246 167.785,244.536 168.157 L 237.887 168.351 237.887 185.560 C 237.887 196.748,238.017 202.898,238.258 203.139 C 238.462 203.343,238.807 204.524,239.025 205.762 C 239.288 207.255,239.593 208.015,239.930 208.015 C 240.209 208.015,240.437 208.254,240.437 208.547 C 240.437 208.860,241.038 209.241,241.894 209.472 C 242.696 209.688,243.352 210.006,243.352 210.179 C 243.352 210.353,245.606 210.551,248.361 210.621 C 254.674 210.780,254.281 210.460,254.281 215.435 C 254.281 221.515,257.650 220.823,227.715 220.890 C 197.731 220.957,201.093 221.621,201.093 215.628 C 201.093 210.637,200.918 210.784,207.041 210.617 C 210.474 210.524,211.927 210.348,212.294 209.980 C 212.574 209.700,213.141 209.472,213.554 209.472 C 214.460 209.472,216.029 207.874,216.029 206.952 C 216.029 206.589,216.357 205.875,216.758 205.365 C 217.828 204.005,217.917 106.579,216.849 105.570 C 216.498 105.239,215.810 104.466,215.320 103.853 C 214.782 103.180,213.950 102.649,213.220 102.512 C 212.556 102.387,211.887 102.063,211.736 101.792 C 211.532 101.428,210.272 101.272,206.914 101.196 L 202.368 101.093 202.264 96.908 C 202.174 93.289,202.245 92.661,202.789 92.263 C 203.471 91.765,247.224 91.638,254.385 92.113 M237.887 129.690 L 237.887 156.648 245.628 156.636 C 251.653 156.625,253.572 156.507,254.281 156.102 C 254.781 155.816,255.863 155.576,256.684 155.568 C 257.639 155.560,258.479 155.293,259.016 154.827 C 259.478 154.426,259.995 154.098,260.165 154.098 C 260.335 154.098,260.801 153.770,261.202 153.370 C 261.603 152.969,262.177 152.641,262.477 152.641 C 262.778 152.641,263.024 152.406,263.024 152.119 C 263.024 151.832,263.352 151.493,263.752 151.366 C 264.153 151.239,264.481 150.900,264.481 150.613 C 264.481 150.326,264.731 150.091,265.036 150.091 C 265.342 150.091,265.749 149.677,265.942 149.171 C 266.289 148.257,266.627 147.770,267.851 146.422 C 268.201 146.036,268.488 145.295,268.488 144.775 C 268.488 144.256,268.816 143.414,269.217 142.905 C 269.709 142.278,269.945 141.427,269.945 140.276 C 269.945 139.339,270.186 138.255,270.480 137.866 C 271.112 137.031,271.293 125.719,270.684 125.110 C 270.490 124.916,270.175 123.659,269.985 122.318 C 269.795 120.976,269.380 119.509,269.064 119.057 C 268.747 118.605,268.488 117.898,268.488 117.486 C 268.488 117.074,268.160 116.457,267.760 116.114 C 267.359 115.771,267.031 115.160,267.031 114.758 C 267.031 114.133,261.589 108.197,261.016 108.197 C 260.914 108.197,260.022 107.628,259.034 106.934 C 258.046 106.239,256.777 105.564,256.214 105.433 C 255.652 105.302,255.027 104.996,254.827 104.752 C 254.627 104.508,253.580 104.205,252.500 104.078 C 251.421 103.951,250.260 103.597,249.921 103.290 C 249.423 102.839,248.211 102.732,243.596 102.732 L 237.887 102.732 237.887 129.690 " stroke="none" fill="#3ccc5c" fill-rule="evenodd"></path><path id="path3" d="M107.864 92.676 C 107.060 93.645,107.504 100.694,108.379 100.848 C 109.067 100.969,109.071 100.949,108.456 100.483 C 107.892 100.056,107.818 99.496,107.909 96.351 L 108.015 92.714 151.529 92.621 C 178.533 92.564,195.173 92.660,195.387 92.874 C 195.893 93.380,196.407 120.630,195.922 121.215 C 195.691 121.493,194.511 121.704,192.943 121.747 L 190.346 121.818 192.842 121.947 C 196.279 122.123,197.271 121.496,196.931 119.362 C 196.799 118.531,196.561 112.221,196.402 105.341 C 196.168 95.177,196.017 92.771,195.598 92.505 C 194.656 91.909,108.361 92.077,107.864 92.676 M203.005 92.394 C 202.500 92.614,202.330 100.367,202.823 100.673 C 202.974 100.766,203.097 99.013,203.097 96.778 L 203.097 92.714 226.047 92.607 C 247.198 92.508,250.811 92.608,257.013 93.462 L 258.470 93.663 257.195 93.023 C 255.936 92.392,204.381 91.793,203.005 92.394 M262.113 94.573 C 264.117 95.069,266.248 95.697,266.849 95.969 C 267.450 96.241,268.761 96.796,269.763 97.202 C 270.765 97.607,271.831 98.040,272.131 98.164 C 275.747 99.653,284.038 106.751,285.653 109.740 C 285.930 110.252,286.753 111.713,287.483 112.986 C 291.444 119.899,292.953 133.550,290.418 139.526 C 290.205 140.027,289.756 141.366,289.419 142.502 C 289.083 143.638,288.470 145.113,288.056 145.781 C 287.643 146.448,286.829 147.875,286.248 148.952 C 285.666 150.029,284.860 151.258,284.456 151.684 C 284.052 152.110,283.040 153.258,282.207 154.235 C 278.593 158.473,271.480 162.961,265.209 164.961 C 263.365 165.549,263.088 165.720,263.956 165.736 C 264.569 165.747,265.388 165.515,265.777 165.221 C 266.166 164.927,266.812 164.676,267.213 164.663 C 268.439 164.625,275.377 161.001,276.944 159.581 C 277.287 159.271,277.998 158.689,278.526 158.288 C 280.664 156.662,285.509 151.426,286.108 150.091 C 286.243 149.791,286.744 148.889,287.222 148.087 C 288.714 145.586,289.982 142.878,289.984 142.190 C 289.985 141.827,290.243 141.038,290.558 140.437 C 292.312 137.081,292.382 123.093,290.663 119.237 C 290.288 118.396,289.982 117.533,289.982 117.318 C 289.982 116.645,288.053 112.568,287.734 112.568 C 287.568 112.568,287.432 112.385,287.432 112.160 C 287.432 110.120,278.423 100.546,276.503 100.546 C 276.322 100.546,276.044 100.328,275.883 100.061 C 275.562 99.525,272.943 98.089,270.128 96.905 C 269.126 96.484,267.842 95.901,267.275 95.611 C 266.707 95.320,266.032 95.082,265.774 95.082 C 265.516 95.082,264.278 94.754,263.024 94.353 C 261.769 93.953,260.232 93.636,259.606 93.649 C 258.943 93.663,259.988 94.048,262.113 94.573 M113.115 101.301 C 119.286 101.813,121.503 102.701,123.057 105.282 L 124.044 106.922 124.044 156.466 L 124.044 206.011 122.974 207.565 C 121.074 210.323,119.750 210.820,113.473 211.126 C 107.090 211.437,107.481 211.128,107.474 215.868 C 107.466 220.931,107.487 220.953,111.864 220.402 C 114.295 220.096,121.810 220.005,137.431 220.094 C 155.606 220.196,159.588 220.132,159.741 219.733 C 160.029 218.984,159.950 212.256,159.648 211.794 C 159.484 211.542,157.280 211.282,153.916 211.119 C 148.417 210.852,145.426 209.957,145.366 208.561 C 145.358 208.361,145.074 207.705,144.736 207.104 C 144.398 206.503,144.016 204.863,143.887 203.461 L 143.652 200.911 143.593 203.350 C 143.442 209.582,146.377 211.544,155.985 211.635 C 159.324 211.666,159.563 211.959,159.563 216.034 C 159.563 217.811,159.424 219.350,159.255 219.455 C 158.478 219.935,108.457 219.730,108.150 219.245 C 107.737 218.593,107.749 213.746,108.167 212.648 C 108.491 211.794,108.648 211.762,113.652 211.514 C 116.486 211.374,119.163 211.096,119.602 210.896 C 123.646 209.059,124.091 208.040,124.399 199.913 C 124.990 184.332,124.461 107.029,123.754 105.608 C 122.183 102.453,118.499 100.867,112.985 100.970 L 109.836 101.029 113.115 101.301 M211.475 101.249 C 214.193 101.852,216.655 103.666,217.442 105.647 C 217.788 106.516,217.806 106.520,217.828 105.750 C 217.880 103.911,213.811 100.853,211.451 100.959 L 210.383 101.007 211.475 101.249 M143.777 102.247 C 143.473 102.550,143.452 147.268,143.755 148.058 C 144.079 148.902,166.662 148.920,169.556 148.079 C 173.098 147.049,174.265 144.857,174.980 137.887 C 175.186 135.883,175.531 134.124,175.746 133.976 C 176.187 133.676,184.735 133.594,185.489 133.884 C 185.886 134.036,185.969 137.843,185.946 154.740 L 185.918 175.410 181.031 175.512 C 175.114 175.636,175.225 175.718,175.233 171.242 C 175.251 160.527,172.383 158.892,154.504 159.424 L 143.716 159.745 143.707 173.406 L 143.698 187.067 143.889 173.588 L 144.080 160.109 156.648 160.109 C 170.284 160.109,171.328 160.252,172.380 162.251 C 172.604 162.676,172.885 163.106,173.005 163.206 C 173.819 163.884,174.863 168.534,174.863 171.481 C 174.863 176.324,174.859 176.321,180.850 176.321 C 184.292 176.321,185.811 176.188,186.075 175.865 C 186.839 174.928,186.547 134.101,185.773 133.687 C 184.888 133.214,176.460 133.233,175.568 133.710 C 175.087 133.968,174.863 134.474,174.863 135.306 C 174.863 142.479,172.749 146.827,168.810 147.754 C 166.547 148.286,149.628 148.492,145.811 148.034 L 143.898 147.804 143.898 125.090 L 143.898 102.377 157.832 102.277 L 171.767 102.177 157.893 102.090 C 150.263 102.043,143.910 102.113,143.777 102.247 M237.596 102.441 C 236.899 103.138,236.970 156.403,237.669 156.983 C 238.754 157.884,253.477 157.600,256.535 156.620 C 263.773 154.299,268.861 148.496,271.023 140.095 C 271.839 136.924,272.090 126.414,271.410 123.862 C 271.223 123.160,270.836 121.685,270.549 120.583 C 270.057 118.695,269.286 116.864,267.819 114.105 C 266.135 110.937,260.492 106.227,256.284 104.478 C 251.869 102.642,247.144 101.381,251.002 103.068 C 251.903 103.462,253.051 103.795,253.552 103.807 C 254.053 103.820,254.954 104.156,255.556 104.554 C 256.157 104.952,256.848 105.279,257.092 105.280 C 260.547 105.299,269.018 115.250,270.119 120.583 C 270.263 121.284,270.619 122.602,270.909 123.512 C 272.159 127.432,271.180 140.331,269.385 143.590 C 269.092 144.122,268.852 144.759,268.852 145.006 C 268.852 145.744,265.755 150.174,264.246 151.595 C 259.382 156.174,256.219 157.077,245.537 156.935 L 237.705 156.831 237.705 129.690 L 237.705 102.550 243.534 102.354 L 249.362 102.158 243.698 102.081 C 239.686 102.026,237.905 102.131,237.596 102.441 M175.225 103.299 C 176.726 103.814,178.215 104.472,178.532 104.759 C 178.850 105.047,179.271 105.282,179.468 105.282 C 180.370 105.282,182.585 109.091,183.812 112.750 C 184.282 114.153,184.674 114.957,184.683 114.538 C 184.705 113.517,183.363 109.668,182.736 108.951 C 182.461 108.636,182.130 108.051,182.000 107.650 C 181.285 105.438,177.234 102.907,173.770 102.508 C 172.945 102.413,173.459 102.692,175.225 103.299 M217.966 155.191 C 217.967 181.740,218.084 202.231,218.226 200.729 C 218.572 197.064,218.580 113.950,218.235 110.018 C 218.086 108.315,217.965 128.643,217.966 155.191 M184.865 117.973 C 185.030 120.709,185.445 121.676,186.453 121.676 C 186.938 121.676,186.928 121.605,186.387 121.210 C 185.989 120.919,185.554 119.723,185.227 118.022 L 184.704 115.301 184.865 117.973 M259.927 166.180 C 259.126 166.372,257.486 166.676,256.284 166.854 C 254.186 167.165,254.222 167.173,257.195 167.048 C 258.924 166.975,260.855 166.667,261.566 166.351 C 263.017 165.706,262.235 165.625,259.927 166.180 M237.548 167.729 C 236.724 168.722,237.178 204.174,238.041 206.193 C 239.765 210.227,241.018 210.938,247.177 211.380 C 249.781 211.568,252.158 211.847,252.459 212.001 C 253.261 212.413,253.454 219.128,252.672 219.428 C 251.903 219.723,203.417 219.800,202.942 219.507 C 202.366 219.151,202.423 212.512,203.005 212.134 C 203.256 211.972,205.529 211.669,208.056 211.461 C 214.631 210.920,217.992 208.600,217.808 204.730 L 217.764 203.825 217.519 204.736 C 216.228 209.526,214.264 210.742,207.181 211.135 C 201.652 211.442,201.821 211.290,201.821 215.942 C 201.821 220.471,202.346 220.984,206.399 220.420 C 208.194 220.171,217.283 220.033,231.116 220.045 C 256.357 220.068,253.916 220.503,253.916 215.983 C 253.916 211.282,254.075 211.421,248.386 211.123 C 241.734 210.774,239.918 209.842,238.457 206.030 C 237.756 204.199,237.079 170.853,237.693 168.405 C 237.896 167.598,237.961 167.590,245.998 167.486 L 254.098 167.381 246.037 167.297 C 239.456 167.228,237.898 167.308,237.548 167.729 " stroke="none" fill="#80dd5c" fill-rule="evenodd"></path><path id="path4" d="M107.707 92.263 C 107.163 92.661,107.092 93.289,107.182 96.908 L 107.286 101.093 108.743 101.150 L 110.200 101.207 108.925 100.968 L 107.650 100.729 107.546 96.957 C 107.478 94.488,107.588 93.009,107.864 92.676 C 108.330 92.115,194.635 91.894,195.512 92.452 C 195.749 92.603,196.007 93.461,196.086 94.359 L 196.230 95.993 196.293 94.123 C 196.350 92.465,196.264 92.228,195.537 92.033 C 193.758 91.556,108.368 91.780,107.707 92.263 M202.789 92.263 C 202.245 92.661,202.174 93.289,202.264 96.908 L 202.368 101.093 206.557 101.118 L 210.747 101.144 206.740 100.936 L 202.732 100.729 202.629 96.640 C 202.527 92.587,202.534 92.550,203.403 92.332 C 205.696 91.756,255.518 92.346,257.377 92.970 C 258.379 93.306,260.018 93.739,261.020 93.931 C 262.022 94.123,263.251 94.401,263.752 94.547 C 264.607 94.797,264.626 94.774,264.065 94.180 C 263.657 93.748,262.673 93.485,260.968 93.352 C 259.594 93.244,258.353 92.974,258.210 92.753 C 257.582 91.778,204.099 91.305,202.789 92.263 M265.563 94.985 C 266.059 95.078,266.792 95.384,267.193 95.664 C 268.263 96.414,268.702 96.286,267.942 95.446 C 267.492 94.950,266.865 94.733,265.973 94.767 C 264.979 94.805,264.880 94.857,265.563 94.985 M270.128 96.903 C 271.938 97.826,272.569 97.821,271.453 96.891 C 270.980 96.497,270.167 96.175,269.646 96.175 C 268.786 96.175,268.831 96.242,270.128 96.903 M273.770 98.527 C 274.572 99.007,275.487 99.658,275.805 99.973 C 276.122 100.289,276.483 100.546,276.606 100.546 C 278.437 100.546,287.432 110.196,287.432 112.160 C 287.432 112.385,287.571 112.568,287.740 112.568 C 287.910 112.568,288.227 112.937,288.444 113.388 C 288.829 114.186,288.840 114.188,288.864 113.444 C 288.878 113.025,288.561 112.385,288.160 112.022 C 287.760 111.659,287.432 111.167,287.432 110.929 C 287.432 110.691,287.104 110.199,286.703 109.836 C 286.302 109.473,285.974 108.941,285.974 108.653 C 285.974 108.365,284.745 106.904,283.242 105.406 C 281.740 103.908,280.504 102.571,280.497 102.434 C 280.479 102.096,277.422 100.182,276.899 100.182 C 276.669 100.182,276.386 99.936,276.270 99.636 C 276.155 99.335,275.858 99.089,275.609 99.089 C 275.361 99.089,274.862 98.761,274.499 98.361 C 274.136 97.960,273.496 97.637,273.077 97.643 C 272.487 97.652,272.646 97.854,273.770 98.527 M112.438 101.655 C 112.647 101.864,114.442 102.208,116.427 102.419 C 119.168 102.711,120.227 102.980,120.830 103.536 C 121.267 103.938,121.822 104.201,122.064 104.121 C 122.882 103.848,120.582 102.702,117.776 101.985 C 114.720 101.203,111.806 101.023,112.438 101.655 M211.743 101.714 C 211.823 101.955,212.452 102.296,213.140 102.471 C 214.296 102.766,216.393 104.567,216.393 105.266 C 216.393 105.432,216.639 105.663,216.940 105.778 C 218.795 106.490,215.842 103.059,213.712 102.028 C 211.922 101.162,211.539 101.101,211.743 101.714 M158.045 102.641 C 169.822 102.723,172.466 102.833,172.890 103.257 C 173.174 103.540,174.321 103.887,175.441 104.027 C 177.563 104.292,181.785 107.614,181.785 109.018 C 181.785 109.319,182.017 109.757,182.300 109.992 C 182.583 110.227,182.925 111.222,183.060 112.204 C 183.265 113.694,184.335 115.614,184.335 114.491 C 184.335 112.512,180.515 105.282,179.468 105.282 C 179.271 105.282,178.851 105.048,178.535 104.762 C 178.219 104.476,176.669 103.820,175.090 103.305 L 172.220 102.368 157.968 102.455 L 143.716 102.541 158.045 102.641 M237.690 102.823 C 237.595 103.074,237.559 115.328,237.611 130.055 L 237.705 156.831 245.719 156.920 C 252.814 156.999,253.985 156.928,255.920 156.302 C 258.102 155.596,258.103 155.595,256.648 155.588 C 255.847 155.584,254.781 155.816,254.281 156.102 C 253.572 156.507,251.653 156.625,245.628 156.636 L 237.887 156.648 237.887 129.690 L 237.887 102.732 243.596 102.732 C 248.211 102.732,249.423 102.839,249.921 103.290 C 250.260 103.597,251.421 103.951,252.500 104.078 C 253.580 104.205,254.627 104.508,254.827 104.752 C 255.027 104.996,255.652 105.302,256.214 105.433 C 256.777 105.564,258.046 106.239,259.034 106.934 C 260.022 107.628,260.914 108.197,261.016 108.197 C 261.589 108.197,267.031 114.133,267.031 114.758 C 267.031 115.160,267.359 115.771,267.760 116.114 C 268.160 116.457,268.488 117.074,268.488 117.486 C 268.488 117.898,268.747 118.605,269.064 119.057 C 269.380 119.509,269.795 120.976,269.985 122.318 C 270.175 123.659,270.490 124.916,270.684 125.110 C 271.293 125.719,271.112 137.031,270.480 137.866 C 270.180 138.263,269.956 139.301,269.970 140.234 L 269.995 141.894 270.569 140.073 C 271.406 137.419,271.649 125.831,270.916 123.532 C 270.622 122.611,270.263 121.284,270.119 120.583 C 269.018 115.250,260.547 105.299,257.092 105.280 C 256.848 105.279,256.157 104.952,255.556 104.554 C 254.954 104.156,254.100 103.829,253.656 103.828 C 253.213 103.826,252.018 103.497,251.002 103.097 C 248.746 102.208,238.010 101.987,237.690 102.823 M122.411 105.071 C 122.407 105.456,122.691 106.088,123.042 106.476 C 124.031 107.569,124.031 204.999,123.042 206.092 C 122.691 206.480,122.404 207.007,122.404 207.263 C 122.404 207.940,120.866 209.458,120.172 209.465 C 119.846 209.469,119.375 209.718,119.126 210.018 C 118.762 210.456,117.663 210.565,113.593 210.565 C 106.794 210.565,107.104 210.322,107.104 215.648 C 107.104 218.029,107.203 220.236,107.325 220.553 C 107.684 221.488,159.828 221.427,160.212 220.492 C 160.691 219.326,160.518 211.739,160.001 211.220 C 159.666 210.885,157.915 210.712,153.990 210.628 C 149.668 210.536,148.388 210.396,148.160 209.991 C 148.000 209.705,147.672 209.469,147.432 209.465 C 146.852 209.457,145.358 207.862,145.343 207.235 C 145.319 206.265,143.924 203.745,143.910 204.646 C 143.904 205.098,144.226 206.079,144.627 206.827 C 145.027 207.574,145.361 208.352,145.368 208.556 C 145.419 209.955,148.410 210.852,153.916 211.119 C 157.280 211.282,159.484 211.542,159.648 211.794 C 159.950 212.256,160.029 218.984,159.741 219.733 C 159.588 220.132,155.606 220.196,137.431 220.094 C 121.810 220.005,114.295 220.096,111.864 220.402 C 107.487 220.953,107.466 220.931,107.474 215.868 C 107.481 211.128,107.090 211.437,113.473 211.126 C 119.750 210.820,121.074 210.323,122.974 207.565 L 124.044 206.011 124.044 156.463 L 124.044 106.914 123.230 105.643 C 122.622 104.692,122.415 104.548,122.411 105.071 M217.663 155.191 C 217.663 182.140,217.707 193.165,217.760 179.690 C 217.812 166.216,217.812 144.167,217.760 130.692 C 217.707 117.218,217.663 128.242,217.663 155.191 M196.407 110.200 C 196.380 111.603,196.529 114.554,196.738 116.758 C 197.108 120.651,197.097 120.783,196.333 121.403 C 195.746 121.879,195.689 122.040,196.108 122.040 C 198.080 122.040,198.175 119.380,196.590 108.561 C 196.516 108.060,196.434 108.798,196.407 110.200 M288.889 114.681 C 288.889 114.842,289.040 115.128,289.225 115.319 C 289.409 115.509,289.722 116.239,289.920 116.940 C 290.247 118.098,290.283 118.125,290.313 117.237 C 290.354 116.010,289.756 114.390,289.262 114.390 C 289.057 114.390,288.889 114.521,288.889 114.681 M184.384 117.916 C 184.321 121.790,184.573 122.065,188.095 121.969 L 190.710 121.897 188.283 121.771 C 185.295 121.615,185.116 121.413,184.734 117.796 L 184.432 114.936 184.384 117.916 M290.346 118.493 C 290.346 118.579,290.573 119.125,290.851 119.707 C 292.401 122.955,292.198 137.300,290.558 140.437 C 290.243 141.038,289.985 141.827,289.984 142.190 C 289.982 142.878,288.714 145.586,287.222 148.087 C 286.744 148.889,286.243 149.791,286.108 150.091 C 285.813 150.748,281.890 155.332,280.419 156.740 C 279.843 157.291,279.538 157.741,279.740 157.741 C 280.142 157.741,281.967 156.152,281.967 155.803 C 281.967 155.684,282.869 154.692,283.971 153.599 C 285.073 152.506,285.974 151.500,285.974 151.364 C 285.974 151.228,286.302 150.700,286.703 150.190 C 287.104 149.681,287.432 149.040,287.432 148.767 C 287.432 148.493,287.760 147.942,288.160 147.541 C 288.561 147.140,288.889 146.493,288.889 146.102 C 288.889 145.711,289.147 145.247,289.462 145.071 C 289.786 144.889,290.123 144.052,290.238 143.140 C 290.350 142.255,290.658 141.281,290.922 140.976 C 291.186 140.671,291.514 139.277,291.651 137.879 C 291.789 136.481,292.084 135.107,292.308 134.826 C 292.858 134.134,292.837 125.913,292.280 124.044 C 292.041 123.242,291.713 121.698,291.551 120.611 C 291.332 119.139,290.346 117.406,290.346 118.493 M174.714 133.645 C 174.318 134.286,173.408 140.420,173.442 142.215 L 173.478 144.080 173.959 141.712 C 174.224 140.410,174.554 138.197,174.692 136.794 C 174.854 135.145,175.147 134.083,175.519 133.789 C 176.043 133.375,176.041 133.333,175.501 133.333 C 175.174 133.333,174.820 133.474,174.714 133.645 M185.840 133.678 C 186.554 134.124,186.781 174.999,186.075 175.865 C 185.811 176.188,184.292 176.321,180.850 176.321 C 174.859 176.321,174.863 176.324,174.863 171.481 C 174.863 167.033,173.776 163.694,171.623 161.532 C 170.636 160.541,170.047 160.387,170.360 161.202 C 170.475 161.503,170.783 161.749,171.043 161.749 C 171.647 161.749,173.406 164.729,173.406 165.754 C 173.406 166.182,173.608 166.890,173.854 167.328 C 174.101 167.766,174.398 169.874,174.516 172.013 C 174.804 177.263,174.532 177.049,180.928 177.049 L 186.175 177.049 186.533 176.107 C 187.330 174.009,186.801 133.540,185.974 133.416 C 185.344 133.321,185.326 133.357,185.840 133.678 M269.126 142.998 C 268.775 143.468,268.502 144.314,268.519 144.877 L 268.551 145.902 268.858 144.877 C 269.028 144.313,269.357 143.622,269.590 143.341 C 269.823 143.060,269.958 142.675,269.889 142.487 C 269.820 142.298,269.476 142.528,269.126 142.998 M172.623 144.802 C 172.353 145.126,171.815 145.708,171.429 146.097 C 171.043 146.486,170.808 146.886,170.908 146.985 C 171.007 147.085,171.639 146.597,172.313 145.902 C 172.987 145.206,173.443 144.542,173.327 144.426 C 173.211 144.310,172.894 144.479,172.623 144.802 M267.329 146.995 C 267.101 147.495,266.792 147.905,266.644 147.905 C 266.495 147.905,266.202 148.397,265.993 148.998 C 265.783 149.599,265.357 150.091,265.046 150.091 C 264.735 150.091,264.481 150.326,264.481 150.613 C 264.481 150.900,264.153 151.239,263.752 151.366 C 263.352 151.493,263.024 151.832,263.024 152.119 C 263.024 152.406,262.778 152.641,262.477 152.641 C 262.177 152.641,261.603 152.969,261.202 153.370 C 260.801 153.770,260.335 154.098,260.165 154.098 C 259.995 154.098,259.478 154.426,259.016 154.827 C 257.620 156.038,258.894 155.645,260.933 154.236 C 264.231 151.956,269.394 146.084,268.099 146.084 C 267.904 146.084,267.557 146.494,267.329 146.995 M143.899 147.581 C 143.896 148.355,165.616 148.528,168.844 147.779 C 170.322 147.436,168.191 147.359,157.278 147.359 C 149.920 147.359,143.899 147.459,143.899 147.581 M278.142 158.517 C 276.390 160.237,275.184 161.013,271.038 163.090 C 269.287 163.967,268.276 164.645,268.712 164.652 C 269.136 164.658,269.874 164.360,270.352 163.990 C 270.829 163.620,271.671 163.207,272.222 163.072 C 272.773 162.938,273.224 162.680,273.224 162.499 C 273.224 162.319,273.692 162.068,274.265 161.942 C 274.837 161.816,275.905 161.164,276.638 160.493 C 277.371 159.822,278.214 159.179,278.512 159.065 C 278.809 158.951,279.053 158.606,279.053 158.299 C 279.053 157.624,279.052 157.624,278.142 158.517 M144.080 160.291 C 143.931 160.532,148.286 160.642,156.900 160.614 C 164.827 160.588,169.374 160.454,168.488 160.271 C 166.344 159.827,144.356 159.846,144.080 160.291 M266.018 165.093 C 265.782 165.329,264.888 165.649,264.033 165.803 C 262.533 166.074,262.547 166.080,264.429 165.970 C 265.502 165.907,266.486 165.694,266.614 165.496 C 266.743 165.298,267.095 165.043,267.395 164.929 C 267.785 164.780,267.727 164.712,267.195 164.692 C 266.784 164.676,266.255 164.856,266.018 165.093 M261.075 166.534 C 260.704 166.750,258.901 167.049,257.067 167.200 L 253.734 167.474 257.080 167.526 C 260.411 167.577,262.295 167.204,262.295 166.494 C 262.295 166.023,261.933 166.035,261.075 166.534 M237.695 168.398 C 237.079 170.851,237.755 204.196,238.457 206.030 C 239.918 209.842,241.734 210.774,248.386 211.123 C 254.075 211.421,253.916 211.282,253.916 215.983 C 253.916 220.503,256.357 220.068,231.116 220.045 C 217.283 220.033,208.194 220.171,206.399 220.420 C 202.346 220.984,201.821 220.471,201.821 215.942 C 201.821 211.290,201.652 211.442,207.181 211.135 C 213.837 210.766,217.607 208.476,217.474 204.883 C 217.451 204.252,216.029 206.279,216.029 206.943 C 216.029 207.872,214.463 209.472,213.554 209.472 C 213.141 209.472,212.574 209.700,212.294 209.980 C 211.927 210.348,210.474 210.524,207.041 210.617 C 200.918 210.784,201.093 210.637,201.093 215.628 C 201.093 221.621,197.731 220.957,227.715 220.890 C 257.650 220.823,254.281 221.515,254.281 215.435 C 254.281 210.460,254.674 210.780,248.361 210.621 C 245.606 210.551,243.352 210.353,243.352 210.179 C 243.352 210.006,242.696 209.688,241.894 209.472 C 241.038 209.241,240.437 208.860,240.437 208.547 C 240.437 208.254,240.209 208.015,239.930 208.015 C 239.593 208.015,239.288 207.255,239.025 205.762 C 238.807 204.524,238.462 203.343,238.258 203.139 C 238.017 202.898,237.887 196.741,237.887 185.537 L 237.887 168.306 244.171 168.280 C 247.628 168.266,250.783 168.114,251.184 167.942 C 251.626 167.752,249.159 167.619,244.907 167.603 C 237.934 167.578,237.900 167.581,237.695 168.398 M143.687 193.989 C 143.686 197.996,143.740 199.685,143.805 197.743 C 143.870 195.800,143.871 192.521,143.806 190.457 C 143.741 188.392,143.687 189.982,143.687 193.989 " stroke="none" fill="#5fd45c" fill-rule="evenodd"></path></g></svg>